<svg xmlns="http://www.w3.org/2000/svg" xmlns:svg="http://www.w3.org/2000/svg" data-name="Layer 1" viewBox="1.06 9.79 63.88 46.28">
 <title>barbeque</title>
 <g class="layer">
  <title>Layer 1</title>
  <path d="m7.58,23.84c-2.42,3.09 -3.4,6.22 -2.93,9.28a12.57,12.57 0 0 0 4.95,7.71a1,1 0 0 0 0.56,0.17a1,1 0 0 0 0.57,-1.82s-3.5,-2.47 -4.1,-6.38c-0.38,-2.49 0.47,-5.1 2.52,-7.73c4.13,-5.3 5.25,-9.07 5.38,-11.47a24.16,24.16 0 0 1 5.88,9.6c-0.36,0.56 -0.78,1.15 -1.27,1.78c-4,5.16 -1.37,9.21 -0.05,10.71a1,1 0 0 0 0.75,0.34a1,1 0 0 0 0.66,-0.25a1,1 0 0 0 0.09,-1.41c-1.51,-1.72 -2.71,-4.52 0.13,-8.16a27,27 0 0 0 1.64,-2.35l0,0a13.5,13.5 0 0 0 2,-5a15.65,15.65 0 0 1 3.64,6.45a15.93,15.93 0 0 1 0.66,5.34a1,1 0 0 0 1,1a1,1 0 0 0 1,-1a17.76,17.76 0 0 0 -0.74,-6c-1.31,-5.33 -5.94,-9.06 -6.14,-9.21a1,1 0 0 0 -1.48,1.3s0.59,1.28 -0.59,4a29,29 0 0 0 -8,-10.73a1,1 0 0 0 -1.26,0a1,1 0 0 0 -0.23,1.26s2,4.04 -4.64,12.57z" id="svg_1"/>
  <path d="m63.41,11.75c-2.57,-1.14 -7.29,-2.61 -10,0.38a38.78,38.78 0 0 0 -2.6,3.21c-1.42,1.91 -2.2,2.83 -3.25,2.77a10.74,10.74 0 0 0 -12.35,6.5a1,1 0 0 0 0,0.83a1,1 0 0 0 0.25,0.33c-2.1,6.4 -9,19.92 -30.29,20.52a4.25,4.25 0 0 0 -4,3.24a4.19,4.19 0 0 0 3,5a49.58,49.58 0 0 0 12.46,1.54c12.05,0 26.66,-4.18 35.61,-18.68a0.92,0.92 0 0 0 0.34,0.21a1,1 0 0 0 1.14,-0.33c0.17,-0.23 4.23,-5.69 2.7,-11.76c-0.25,-1 -0.43,-1.8 -0.59,-2.46c-0.1,-0.44 -0.18,-0.81 -0.26,-1.12a5.13,5.13 0 0 1 0.55,-4c1,-1.61 2.65,-2.08 4.89,-1.48l0.42,0.16a2.67,2.67 0 0 0 2,-4.94l-0.02,0.08zm-58.77,40.89a2.2,2.2 0 0 1 -1.58,-2.64a2.25,2.25 0 0 1 2.13,-1.7c22.53,-0.64 29.92,-15.11 32.15,-21.94a17.07,17.07 0 0 0 6,0.33l-0.51,5.85a1,1 0 0 0 1.41,1l5.76,-2.68a8.76,8.76 0 0 1 1.63,3.5c-14.09,26.07 -43.63,19.16 -46.99,18.28zm58.36,-38.3a0.65,0.65 0 0 1 -0.33,0.44a0.66,0.66 0 0 1 -0.56,0l-0.51,-0.19c-4.25,-1.15 -6.33,0.95 -7.19,2.31a7.15,7.15 0 0 0 -0.8,5.52c0.08,0.3 0.16,0.66 0.25,1.08c0.16,0.66 0.35,1.49 0.6,2.49a11.67,11.67 0 0 1 -0.91,7.48a10.25,10.25 0 0 0 -2.55,-4.56a1,1 0 0 0 -1.1,-0.18l-4.9,2.27l0.5,-5.62a1,1 0 0 0 -0.45,-0.93a1,1 0 0 0 -1,0c-1.45,0.8 -4.56,0.37 -6.51,-0.05a8.61,8.61 0 0 1 9.57,-4.27l0.17,0c2.29,0.2 3.52,-1.45 5.09,-3.56a36.51,36.51 0 0 1 2.47,-3c2,-2.15 6.1,-0.66 7.77,0.08a0.67,0.67 0 0 1 0.39,0.69z" id="svg_2"/>
  <path d="m32.89,46.94a15.85,15.85 0 0 1 -3.09,1.14a1,1 0 0 0 0.24,2l0.24,0a18.26,18.26 0 0 0 3.48,-1.27a1,1 0 1 0 -0.87,-1.81l0,-0.06z" id="svg_3"/>
  <path d="m40.84,40.38a24.74,24.74 0 0 1 -5.28,5a1,1 0 0 0 -0.25,1.39a1,1 0 0 0 0.82,0.43a1,1 0 0 0 0.57,-0.2a26.29,26.29 0 0 0 5.76,-5.46a1,1 0 0 0 -1.62,-1.18l0,0.02z" id="svg_4"/>
  <path d="m3.57,22.16a0.92,0.92 0 0 0 0.36,-0.07a1,1 0 0 0 0.57,-1.29c-1.2,-3.11 -0.72,-5.32 0,-6.7a7.79,7.79 0 0 0 3.3,4a1,1 0 1 0 1,-1.73s-3.11,-1.85 -2.41,-4.67a1,1 0 0 0 -0.39,-1.07a1,1 0 0 0 -1.14,0s-5,3.61 -2.22,10.89a1,1 0 0 0 0.93,0.64z" id="svg_5"/>
 </g>
</svg>